<?xml version="1.0" encoding="UTF-8"?>
<svg xmlns="http://www.w3.org/2000/svg" xmlns:xlink="http://www.w3.org/1999/xlink" width="15pt" height="15pt" viewBox="0 0 15 15" version="1.1">
<g id="surface1">
<path style=" stroke:none;fill-rule:nonzero;fill:rgb(100%,70.196078%,100%);fill-opacity:1;" d="M 10.699219 11.25 L 7.648438 8.199219 C 7.800781 8 7.898438 7.75 7.898438 7.5 C 7.898438 7.300781 7.851562 7.101562 7.75 6.949219 L 10.800781 3.851562 C 11.25 4.148438 11.800781 4.101562 12.199219 3.699219 C 12.648438 3.25 12.648438 2.550781 12.199219 2.101562 C 11.75 1.648438 11.050781 1.648438 10.648438 2.101562 C 10.25 2.5 10.25 3.101562 10.5 3.5 L 7.5 6.5 C 7.25 6.449219 7.050781 6.351562 6.800781 6.351562 C 6.199219 6.351562 5.75 6.851562 5.75 7.449219 C 5.75 8.050781 6.25 8.550781 6.800781 8.550781 C 7 8.550781 7.148438 8.5 7.300781 8.449219 L 10.398438 11.550781 C 10.148438 11.949219 10.25 12.5 10.601562 12.898438 C 11.050781 13.351562 11.75 13.351562 12.148438 12.898438 C 12.601562 12.449219 12.601562 11.75 12.148438 11.300781 C 11.75 10.898438 11.101562 10.898438 10.699219 11.25 Z M 10.699219 11.25 "/>
<path style=" stroke:none;fill-rule:nonzero;fill:rgb(97.647059%,30.196078%,100%);fill-opacity:1;" d="M 6.800781 3.148438 C 4.398438 3.148438 2.5 5.101562 2.5 7.5 C 2.5 9.898438 4.449219 11.800781 6.800781 11.800781 C 9.148438 11.800781 11.101562 9.851562 11.101562 7.5 C 11.101562 5.148438 9.148438 3.148438 6.800781 3.148438 Z M 6.800781 10.898438 C 4.898438 10.898438 3.398438 9.351562 3.398438 7.5 C 3.398438 5.601562 4.949219 4.101562 6.800781 4.101562 C 8.699219 4.101562 10.199219 5.648438 10.199219 7.5 C 10.25 9.398438 8.699219 10.898438 6.800781 10.898438 Z M 6.800781 10.898438 "/>
</g>
</svg>
