<?xml version="1.0" encoding="UTF-8"?>
<svg xmlns="http://www.w3.org/2000/svg" xmlns:xlink="http://www.w3.org/1999/xlink" width="21pt" height="23pt" viewBox="0 0 21 23" version="1.1">
<defs>
<linearGradient id="linear0" gradientUnits="userSpaceOnUse" x1="63.0007" y1="1" x2="63.0007" y2="140" gradientTransform="matrix(0.165468,0,0,-0.165468,0.0755396,23.165468)">
<stop offset="0" style="stop-color:rgb(10.588235%,66.27451%,29.803922%);stop-opacity:1;"/>
<stop offset="1" style="stop-color:rgb(19.607843%,78.039216%,40%);stop-opacity:1;"/>
</linearGradient>
</defs>
<g id="surface1">
<path style=" stroke:none;fill-rule:nonzero;fill:rgb(100%,100%,100%);fill-opacity:1;" d="M 4.972656 4.039062 L 16.042969 4.039062 L 16.042969 18.980469 L 4.972656 18.980469 Z M 4.972656 4.039062 "/>
<path style=" stroke:none;fill-rule:nonzero;fill:url(#linear0);" d="M 20.90625 10.324219 C 20.875 8.175781 20.710938 6.238281 20.429688 5.757812 C 20.195312 5.359375 19.023438 4.515625 17.566406 3.589844 L 13.660156 1.324219 C 12.1875 0.546875 10.945312 0 10.5 0 C 9.953125 0 8.183594 0.828125 6.296875 1.886719 C 4.859375 2.679688 3.351562 3.589844 2.226562 4.351562 C 1.367188 4.949219 0.722656 5.460938 0.554688 5.757812 C 0.390625 6.054688 0.257812 6.882812 0.191406 7.992188 C 0.09375 9.382812 0.0585938 11.1875 0.09375 12.839844 C 0.140625 14.941406 0.289062 16.796875 0.554688 17.257812 C 1.21875 18.382812 9.191406 23 10.5 23 C 11.046875 23 12.734375 22.207031 14.570312 21.195312 C 16.027344 20.402344 17.566406 19.460938 18.722656 18.679688 C 19.617188 18.070312 20.261719 17.554688 20.445312 17.257812 C 20.625 16.960938 20.742188 16.148438 20.808594 15.074219 C 20.90625 13.71875 20.941406 11.945312 20.90625 10.324219 Z M 15.183594 16.347656 L 13.578125 17.804688 C 13.527344 17.871094 13.460938 17.902344 13.378906 17.902344 C 13.296875 17.902344 13.214844 17.871094 13.164062 17.804688 L 11.660156 16.347656 C 11.542969 16.28125 11.507812 16.132812 11.574219 16.015625 C 11.625 15.933594 11.707031 15.902344 11.789062 15.902344 L 12.222656 15.902344 L 12.222656 12.640625 L 8.796875 12.640625 L 8.796875 16.230469 C 8.796875 16.363281 8.679688 16.480469 8.546875 16.480469 L 6.628906 16.480469 C 6.496094 16.480469 6.378906 16.363281 6.378906 16.230469 L 6.378906 7.097656 L 5.933594 7.097656 C 5.800781 7.097656 5.683594 6.984375 5.683594 6.851562 C 5.683594 6.769531 5.734375 6.683594 5.800781 6.636719 L 7.40625 5.179688 C 7.457031 5.113281 7.523438 5.078125 7.605469 5.078125 C 7.6875 5.078125 7.769531 5.113281 7.820312 5.179688 L 9.324219 6.636719 C 9.441406 6.703125 9.472656 6.851562 9.40625 6.964844 C 9.359375 7.050781 9.277344 7.082031 9.191406 7.082031 L 8.761719 7.082031 L 8.761719 10.210938 L 12.1875 10.210938 L 12.1875 6.734375 C 12.1875 6.601562 12.304688 6.488281 12.4375 6.488281 L 14.355469 6.488281 C 14.488281 6.488281 14.605469 6.601562 14.605469 6.734375 L 14.605469 15.867188 L 15.050781 15.867188 C 15.183594 15.867188 15.296875 15.984375 15.296875 16.117188 C 15.296875 16.230469 15.265625 16.316406 15.183594 16.347656 Z M 15.183594 16.347656 "/>
</g>
</svg>
