<svg xmlns="http://www.w3.org/2000/svg" viewBox="0 0 648.89 129.91"><defs><style>.cls-1{font-size:100px;fill:#272838;font-family:Audiowide-Regular, Audiowide;}.cls-2{letter-spacing:0em;}.cls-3{fill:#eb9486;}</style></defs><title>Asset 4</title><g id="Layer_2" data-name="Layer 2"><g id="Layer_1-2" data-name="Layer 1"><text class="cls-1" transform="translate(0 85.01)">Di<tspan class="cls-2" x="107.37" y="0">r</tspan><tspan x="161.72" y="0">ec</tspan><tspan class="cls-2" x="288.67" y="0">t</tspan><tspan x="344.82" y="0">ory</tspan></text><path class="cls-3" d="M633.57,63.76,594,103.89a6.47,6.47,0,0,0,0,9.11,6.34,6.34,0,0,0,9,0l44-44.68a6.68,6.68,0,0,0,0-9.12L603,14.52a6.34,6.34,0,0,0-9,0,6.49,6.49,0,0,0,0,9.11Z"/><path class="cls-3" d="M588.89,63.76l-39.56,40.13a6.49,6.49,0,0,0,0,9.11,6.34,6.34,0,0,0,9,0l44-44.68a6.67,6.67,0,0,0,0-9.12l-44-44.68a6.34,6.34,0,0,0-9,0,6.49,6.49,0,0,0,0,9.11Z"/></g></g></svg>