<?xml version="1.0" encoding="UTF-8"?>
<svg xmlns="http://www.w3.org/2000/svg" xmlns:xlink="http://www.w3.org/1999/xlink" width="32pt" height="32pt" viewBox="0 0 32 32" version="1.1">
<g id="surface1">
<path style=" stroke:none;fill-rule:nonzero;fill:yellow;fill-opacity:1;" d="M 0 16.75 C 0 25.238281 7.332031 31.835938 15.851562 31.835938 C 24.722656 31.867188 31.941406 24.828125 32 16.09375 C 31.953125 11.234375 29.6875 6.65625 25.828125 3.625 L 23.144531 8.199219 C 25.515625 10.1875 26.882812 13.097656 26.890625 16.164062 C 26.84375 22.160156 21.867188 26.984375 15.777344 26.9375 C 9.691406 26.890625 4.789062 21.992188 4.835938 15.996094 C 4.835938 15.285156 4.902344 14.574219 5.035156 13.875 Z M 20.824219 0.945312 C 19.472656 0.433594 18.035156 0.167969 16.582031 0.164062 C 15.714844 0.167969 14.847656 0.253906 13.996094 0.421875 L 10.542969 6.289062 C 11.96875 5.53125 13.570312 5.148438 15.1875 5.179688 C 16.175781 5.179688 17.15625 5.308594 18.109375 5.570312 Z M 20.824219 0.945312 "/>
</g>
</svg>
