<svg width="25" height="30" viewBox="0 0 25 30" fill="none" xmlns="http://www.w3.org/2000/svg">
<path d="M9.94712 25.4117C9.94712 27.9457 7.88036 29.9999 5.33088 29.9999C2.78139 29.9999 0.71463 27.9457 0.71463 25.4117C0.71463 22.8777 2.78139 20.8235 5.33088 20.8235C7.88036 20.8235 9.94712 22.8777 9.94712 25.4117Z" fill="#824DF3"/>
<path d="M25 20.2881C25 25.6518 20.395 30 14.7145 30L14.7145 10.5761C20.395 10.5761 25 14.9243 25 20.2881Z" fill="url(#paint0_linear)"/>
<path d="M7.68444e-06 10.0621C8.15893e-06 4.69836 4.605 0.350181 10.2855 0.350184L10.2855 19.774C4.605 19.774 7.20994e-06 15.4259 7.68444e-06 10.0621Z" fill="#D33BA3"/>
<path fill-rule="evenodd" clip-rule="evenodd" d="M23.5714 4.60184C23.5714 4.5973 23.5714 4.59276 23.5714 4.58822C23.5714 4.58368 23.5714 4.57914 23.5714 4.5746V0H18.9286H18.6106V0.0105949C16.1948 0.172098 14.2858 2.15985 14.2858 4.58822C14.2858 7.12222 16.3645 9.17644 18.9286 9.17644C21.4288 9.17644 23.4675 7.22335 23.5675 4.77678H23.5714V4.60184Z" fill="#39D09A"/>
<defs>
<linearGradient id="paint0_linear" x1="25" y1="0.35294" x2="14.8259" y2="30.0381" gradientUnits="userSpaceOnUse">
<stop stop-color="#4D90F3"/>
<stop offset="1" stop-color="#1855E1"/>
</linearGradient>
</defs>
</svg>
