<svg id="Layer_1" data-name="Layer 1" xmlns="http://www.w3.org/2000/svg" viewBox="0 0 196.42 198.34"><defs><style>.cls-1{fill:#f2e44a;}.cls-2{fill:#a34f9e;stroke:#a34f9e;}.cls-2,.cls-3,.cls-4{stroke-linecap:round;stroke-linejoin:round;stroke-width:4px;}.cls-3{fill:#5fc9d9;stroke:#5fc9d9;}.cls-4{fill:#e04c35;stroke:#e04c35;}</style></defs><title>ux-logo_1</title><path class="cls-1" d="M93,194.61a112.58,112.58,0,0,1-41.29-7.75c-16.75-6.56-29.53-17.07-38-31.24l-1-1.7-1.19-2.09-2.08-4.06a2.39,2.39,0,0,1-.73-1.42c-5.49-10.13-6.5-20.95-6.79-28.25C1.34,104.35,4.15,90.2,10.23,76,19.91,53.51,33.6,36.23,52.1,23.23c14-9.84,28.51-15.67,44.41-17.85A76.87,76.87,0,0,1,107,4.66a78.36,78.36,0,0,1,25,4.17,25.81,25.81,0,0,1,4.78,2.32c.65.37,1.27.72,1.9,1l1.67.87-1.64,4.51-1.62-.13c-.41,0-.83,0-1.26-.05a12.85,12.85,0,0,1-3.45-.4,72.35,72.35,0,0,0-21-3.2c-13.09,0-26.34,3.82-40.33,11.66a60.47,60.47,0,0,1,15.6-1.89,95.37,95.37,0,0,1,10.64.64,155.23,155.23,0,0,1,56.85,18.24c20.68,11.18,33.57,26.73,38.34,46.2,4.93,20.17,1.11,43.26-10.23,61.77-8.69,14.19-26,32.74-58.89,40.51A132.23,132.23,0,0,1,93,194.61ZM26.25,153.19c.41.51.81,1,1.2,1.54C42.55,175,62.59,185.25,87,185.25a98.94,98.94,0,0,0,12.65-.85c30.1-3.94,52.91-17.74,67.79-41,10.62-16.61,14.62-33.83,11.87-51.19-3.15-19.9-14.44-34.73-33.56-44.08-18.92-9.24-36.61-13.73-54.08-13.73h-1c-10.25.1-18.51,2.85-25.25,8.41a10.35,10.35,0,0,1-4.34,2.37,9.62,9.62,0,0,1-1.76.17,8.1,8.1,0,0,1-6.1-2.72A4.41,4.41,0,0,1,52,39.49C29.75,59.62,17.55,84.42,15.7,113.28c-.67,10.29,1.45,20.86,6.65,33.24l2.59,4.87.81,1.17Z"/><path class="cls-2" d="M129.9,92.22c-4.73-4.73-10.43-31.9-10.43-31.9s-5.7,27.17-10.42,31.9c-6,6-28.75,9.72-28.75,9.72s23.38,7.44,28.42,12.71c4.63,4.83,10.75,39.5,10.75,39.5s6.12-34.67,10.75-39.5c5-5.27,28.42-12.71,28.42-12.71S135.91,98.23,129.9,92.22Z"/><path class="cls-3" d="M69.19,76.42c-2.27-2.27-5-15.32-5-15.32s-2.74,13.05-5,15.32c-2.89,2.89-13.81,4.67-13.81,4.67S56.6,84.67,59,87.2c2.22,2.32,5.16,19,5.16,19s2.94-16.66,5.17-19C71.77,84.67,83,81.09,83,81.09S72.08,79.31,69.19,76.42Z"/><path class="cls-4" d="M84.88,134.44c-2.27-2.27-5-15.33-5-15.33s-2.74,13.06-5,15.33c-2.89,2.89-13.81,4.67-13.81,4.67s11.23,3.58,13.65,6.1c2.23,2.33,5.17,19,5.17,19s2.94-16.65,5.16-19c2.42-2.52,13.66-6.1,13.66-6.1S87.77,137.33,84.88,134.44Z"/></svg>